<svg width="260" height="436" viewBox="0 0 260 436" fill="none" xmlns="http://www.w3.org/2000/svg">
<path d="M81.5637 359.144C81.0037 359.144 80.5477 358.976 80.1957 358.64C79.8597 358.288 79.6917 357.832 79.6917 357.272V343.832C79.6917 343.272 79.8437 342.84 80.1477 342.536C80.4517 342.232 80.8837 342.08 81.4437 342.08H89.6997C90.3077 342.08 90.7557 342.2 91.0437 342.44C91.3317 342.68 91.4757 343.056 91.4757 343.568C91.4757 344.064 91.3317 344.432 91.0437 344.672C90.7557 344.912 90.3077 345.032 89.6997 345.032H83.3877V348.92H89.2197C89.8277 348.92 90.2757 349.04 90.5637 349.28C90.8517 349.52 90.9957 349.896 90.9957 350.408C90.9957 350.904 90.8517 351.272 90.5637 351.512C90.2757 351.752 89.8277 351.872 89.2197 351.872H83.3877V357.272C83.3877 357.848 83.2197 358.304 82.8837 358.64C82.5637 358.976 82.1237 359.144 81.5637 359.144ZM98.5677 359.192C97.3197 359.192 96.2237 358.944 95.2797 358.448C94.3357 357.936 93.6077 357.224 93.0957 356.312C92.5837 355.384 92.3277 354.296 92.3277 353.048C92.3277 351.8 92.5837 350.72 93.0957 349.808C93.6077 348.88 94.3357 348.168 95.2797 347.672C96.2237 347.176 97.3197 346.928 98.5677 346.928C99.8157 346.928 100.912 347.176 101.856 347.672C102.8 348.168 103.528 348.88 104.04 349.808C104.552 350.72 104.808 351.8 104.808 353.048C104.808 354.296 104.552 355.384 104.04 356.312C103.528 357.224 102.8 357.936 101.856 358.448C100.912 358.944 99.8157 359.192 98.5677 359.192ZM98.5677 356.432C100.328 356.432 101.208 355.304 101.208 353.048C101.208 351.912 100.976 351.064 100.512 350.504C100.064 349.944 99.4157 349.664 98.5677 349.664C96.8077 349.664 95.9277 350.792 95.9277 353.048C95.9277 355.304 96.8077 356.432 98.5677 356.432ZM114.045 346.976C114.525 346.944 114.901 347.056 115.173 347.312C115.461 347.552 115.605 347.92 115.605 348.416C115.605 348.944 115.477 349.336 115.221 349.592C114.965 349.848 114.509 350.008 113.853 350.072L113.133 350.144C112.253 350.24 111.613 350.528 111.213 351.008C110.829 351.488 110.637 352.104 110.637 352.856V357.44C110.637 358 110.461 358.424 110.109 358.712C109.773 359 109.349 359.144 108.837 359.144C108.309 359.144 107.869 359 107.517 358.712C107.181 358.424 107.013 358 107.013 357.44V348.632C107.013 348.104 107.189 347.696 107.541 347.408C107.893 347.12 108.317 346.976 108.813 346.976C109.293 346.976 109.693 347.12 110.013 347.408C110.333 347.68 110.493 348.064 110.493 348.56V349.208C110.781 348.52 111.213 347.992 111.789 347.624C112.381 347.256 113.021 347.048 113.709 347L114.045 346.976ZM124.37 356.504C124.85 356.536 125.202 356.656 125.426 356.864C125.65 357.072 125.762 357.376 125.762 357.776C125.762 358.24 125.578 358.592 125.21 358.832C124.842 359.072 124.314 359.168 123.626 359.12L122.954 359.072C120.154 358.848 118.754 357.384 118.754 354.68V349.928H117.794C117.266 349.928 116.866 349.816 116.594 349.592C116.322 349.352 116.186 349.016 116.186 348.584C116.186 348.136 116.322 347.8 116.594 347.576C116.866 347.336 117.266 347.216 117.794 347.216H118.754V345.344C118.754 344.816 118.914 344.4 119.234 344.096C119.57 343.792 120.018 343.64 120.578 343.64C121.138 343.64 121.578 343.792 121.898 344.096C122.218 344.4 122.378 344.816 122.378 345.344V347.216H124.058C125.146 347.216 125.69 347.672 125.69 348.584C125.69 349.016 125.554 349.352 125.282 349.592C125.01 349.816 124.602 349.928 124.058 349.928H122.378V354.944C122.378 355.424 122.49 355.792 122.714 356.048C122.938 356.288 123.266 356.424 123.698 356.456L124.37 356.504ZM132.403 346.928C134.131 346.928 135.411 347.352 136.243 348.2C137.075 349.032 137.491 350.312 137.491 352.04V357.464C137.491 357.992 137.339 358.408 137.035 358.712C136.731 359 136.307 359.144 135.763 359.144C135.251 359.144 134.835 358.992 134.515 358.688C134.211 358.368 134.059 357.96 134.059 357.464V357.296C133.819 357.888 133.419 358.352 132.859 358.688C132.299 359.024 131.643 359.192 130.891 359.192C130.091 359.192 129.363 359.032 128.707 358.712C128.067 358.392 127.555 357.944 127.171 357.368C126.803 356.792 126.619 356.152 126.619 355.448C126.619 354.584 126.835 353.904 127.267 353.408C127.715 352.912 128.427 352.552 129.403 352.328C130.379 352.104 131.715 351.992 133.411 351.992H134.035V351.56C134.035 350.888 133.883 350.4 133.579 350.096C133.291 349.792 132.803 349.64 132.115 349.64C131.427 349.64 130.435 349.88 129.139 350.36C128.771 350.536 128.459 350.624 128.203 350.624C127.851 350.624 127.571 350.504 127.363 350.264C127.155 350.008 127.051 349.68 127.051 349.28C127.051 348.96 127.123 348.696 127.267 348.488C127.411 348.28 127.643 348.088 127.963 347.912C128.523 347.608 129.203 347.368 130.003 347.192C130.819 347.016 131.619 346.928 132.403 346.928ZM131.683 356.696C132.387 356.696 132.955 356.464 133.387 356C133.819 355.52 134.035 354.904 134.035 354.152V353.744H133.627C132.331 353.744 131.419 353.848 130.891 354.056C130.379 354.264 130.123 354.64 130.123 355.184C130.123 355.632 130.267 356 130.555 356.288C130.859 356.56 131.235 356.696 131.683 356.696ZM142.025 359.144C141.497 359.144 141.057 359 140.705 358.712C140.369 358.424 140.201 358 140.201 357.44V343.664C140.201 343.104 140.369 342.68 140.705 342.392C141.057 342.104 141.497 341.96 142.025 341.96C142.537 341.96 142.961 342.104 143.297 342.392C143.649 342.68 143.825 343.104 143.825 343.664V357.44C143.825 358 143.649 358.424 143.297 358.712C142.961 359 142.537 359.144 142.025 359.144ZM156.055 355.496C156.375 355.496 156.631 355.624 156.823 355.88C157.031 356.136 157.135 356.464 157.135 356.864C157.135 357.136 157.055 357.392 156.895 357.632C156.735 357.856 156.511 358.048 156.223 358.208C155.679 358.496 155.047 358.736 154.327 358.928C153.607 359.104 152.943 359.192 152.335 359.192C151.055 359.192 149.935 358.944 148.975 358.448C148.031 357.952 147.303 357.248 146.791 356.336C146.279 355.408 146.023 354.32 146.023 353.072C146.023 351.872 146.271 350.808 146.767 349.88C147.263 348.952 147.951 348.232 148.831 347.72C149.711 347.192 150.711 346.928 151.831 346.928C152.903 346.928 153.839 347.168 154.639 347.648C155.455 348.112 156.087 348.784 156.535 349.664C156.983 350.528 157.207 351.544 157.207 352.712C157.207 353.064 157.119 353.336 156.943 353.528C156.783 353.704 156.551 353.792 156.247 353.792H149.527C149.639 354.736 149.927 355.424 150.391 355.856C150.855 356.272 151.519 356.48 152.383 356.48C152.847 356.48 153.263 356.424 153.631 356.312C153.999 356.2 154.407 356.048 154.855 355.856C155.079 355.76 155.295 355.68 155.503 355.616C155.711 355.536 155.895 355.496 156.055 355.496ZM151.927 349.424C151.239 349.424 150.687 349.648 150.271 350.096C149.855 350.528 149.607 351.16 149.527 351.992H154.159C154.111 351.144 153.895 350.504 153.511 350.072C153.143 349.64 152.615 349.424 151.927 349.424ZM167.924 356.288C169.012 356.288 169.556 356.744 169.556 357.656C169.556 358.552 169.012 359 167.924 359H160.148C159.668 359 159.276 358.848 158.972 358.544C158.668 358.24 158.516 357.88 158.516 357.464C158.516 356.984 158.684 356.568 159.02 356.216L164.636 349.928H160.028C158.94 349.928 158.396 349.48 158.396 348.584C158.396 347.672 158.94 347.216 160.028 347.216H167.516C168.012 347.216 168.404 347.368 168.692 347.672C168.996 347.976 169.148 348.344 169.148 348.776C169.148 349.256 168.98 349.672 168.644 350.024L163.052 356.288H167.924ZM176.583 346.928C178.311 346.928 179.591 347.352 180.423 348.2C181.255 349.032 181.671 350.312 181.671 352.04V357.464C181.671 357.992 181.519 358.408 181.215 358.712C180.911 359 180.487 359.144 179.943 359.144C179.431 359.144 179.015 358.992 178.695 358.688C178.391 358.368 178.239 357.96 178.239 357.464V357.296C177.999 357.888 177.599 358.352 177.039 358.688C176.479 359.024 175.823 359.192 175.071 359.192C174.271 359.192 173.543 359.032 172.887 358.712C172.247 358.392 171.735 357.944 171.351 357.368C170.983 356.792 170.799 356.152 170.799 355.448C170.799 354.584 171.015 353.904 171.447 353.408C171.895 352.912 172.607 352.552 173.583 352.328C174.559 352.104 175.895 351.992 177.591 351.992H178.215V351.56C178.215 350.888 178.063 350.4 177.759 350.096C177.471 349.792 176.983 349.64 176.295 349.64C175.607 349.64 174.615 349.88 173.319 350.36C172.951 350.536 172.639 350.624 172.383 350.624C172.031 350.624 171.751 350.504 171.543 350.264C171.335 350.008 171.231 349.68 171.231 349.28C171.231 348.96 171.303 348.696 171.447 348.488C171.591 348.28 171.823 348.088 172.143 347.912C172.703 347.608 173.383 347.368 174.183 347.192C174.999 347.016 175.799 346.928 176.583 346.928ZM175.863 356.696C176.567 356.696 177.135 356.464 177.567 356C177.999 355.52 178.215 354.904 178.215 354.152V353.744H177.807C176.511 353.744 175.599 353.848 175.071 354.056C174.559 354.264 174.303 354.64 174.303 355.184C174.303 355.632 174.447 356 174.735 356.288C175.039 356.56 175.415 356.696 175.863 356.696ZM108.277 393.192C106.661 393.192 105.253 392.848 104.053 392.16C102.853 391.456 101.933 390.456 101.293 389.16C100.653 387.848 100.333 386.304 100.333 384.528C100.333 382.768 100.653 381.24 101.293 379.944C101.933 378.632 102.853 377.632 104.053 376.944C105.253 376.24 106.661 375.888 108.277 375.888C109.333 375.888 110.333 376.056 111.277 376.392C112.221 376.712 113.045 377.184 113.749 377.808C114.053 378.048 114.205 378.368 114.205 378.768C114.205 379.056 114.125 379.304 113.965 379.512C113.805 379.704 113.613 379.8 113.389 379.8C113.117 379.8 112.853 379.696 112.597 379.488C111.829 378.912 111.125 378.512 110.485 378.288C109.861 378.048 109.149 377.928 108.349 377.928C106.589 377.928 105.237 378.496 104.293 379.632C103.349 380.768 102.877 382.4 102.877 384.528C102.877 386.672 103.349 388.312 104.293 389.448C105.237 390.584 106.589 391.152 108.349 391.152C109.117 391.152 109.813 391.032 110.437 390.792C111.077 390.552 111.797 390.152 112.597 389.592C112.917 389.384 113.181 389.28 113.389 389.28C113.613 389.28 113.805 389.384 113.965 389.592C114.125 389.784 114.205 390.024 114.205 390.312C114.205 390.712 114.053 391.032 113.749 391.272C113.045 391.896 112.221 392.376 111.277 392.712C110.333 393.032 109.333 393.192 108.277 393.192ZM125.797 390.048C126.021 390.048 126.205 390.136 126.349 390.312C126.493 390.488 126.565 390.712 126.565 390.984C126.565 391.448 126.277 391.84 125.701 392.16C125.141 392.48 124.525 392.728 123.853 392.904C123.197 393.08 122.565 393.168 121.957 393.168C120.101 393.168 118.637 392.632 117.565 391.56C116.493 390.472 115.957 388.992 115.957 387.12C115.957 385.92 116.189 384.856 116.653 383.928C117.133 383 117.797 382.28 118.645 381.768C119.509 381.256 120.485 381 121.573 381C123.141 381 124.381 381.504 125.293 382.512C126.205 383.52 126.661 384.88 126.661 386.592C126.661 387.232 126.373 387.552 125.797 387.552H118.381C118.541 390.032 119.733 391.272 121.957 391.272C122.549 391.272 123.061 391.192 123.493 391.032C123.925 390.872 124.381 390.664 124.861 390.408C124.909 390.376 125.037 390.312 125.245 390.216C125.469 390.104 125.653 390.048 125.797 390.048ZM121.621 382.776C120.693 382.776 119.949 383.072 119.389 383.664C118.829 384.256 118.493 385.088 118.381 386.16H124.573C124.525 385.072 124.245 384.24 123.733 383.664C123.237 383.072 122.533 382.776 121.621 382.776ZM134.252 381C135.804 381 136.956 381.392 137.708 382.176C138.476 382.96 138.86 384.152 138.86 385.752V391.968C138.86 392.336 138.756 392.624 138.548 392.832C138.34 393.024 138.052 393.12 137.684 393.12C137.332 393.12 137.052 393.016 136.844 392.808C136.636 392.6 136.532 392.32 136.532 391.968V391.08C136.228 391.752 135.772 392.272 135.164 392.64C134.572 392.992 133.876 393.168 133.076 393.168C132.308 393.168 131.604 393.016 130.964 392.712C130.34 392.392 129.844 391.96 129.476 391.416C129.108 390.872 128.924 390.256 128.924 389.568C128.908 388.704 129.124 388.032 129.572 387.552C130.02 387.056 130.748 386.704 131.756 386.496C132.764 386.272 134.164 386.16 135.956 386.16H136.508V385.464C136.508 384.568 136.324 383.92 135.956 383.52C135.588 383.12 134.996 382.92 134.18 382.92C133.62 382.92 133.092 382.992 132.596 383.136C132.1 383.28 131.556 383.488 130.964 383.76C130.532 384 130.228 384.12 130.052 384.12C129.812 384.12 129.612 384.032 129.452 383.856C129.308 383.68 129.236 383.456 129.236 383.184C129.236 382.944 129.3 382.736 129.428 382.56C129.572 382.368 129.796 382.184 130.1 382.008C130.66 381.704 131.316 381.464 132.068 381.288C132.82 381.096 133.548 381 134.252 381ZM133.508 391.368C134.388 391.368 135.108 391.072 135.668 390.48C136.228 389.872 136.508 389.096 136.508 388.152V387.528H136.076C134.828 387.528 133.868 387.584 133.196 387.696C132.524 387.808 132.044 388 131.756 388.272C131.468 388.528 131.324 388.904 131.324 389.4C131.324 389.976 131.532 390.448 131.948 390.816C132.364 391.184 132.884 391.368 133.508 391.368ZM148.32 381.048C149.088 381 149.472 381.328 149.472 382.032C149.472 382.384 149.384 382.648 149.208 382.824C149.032 383 148.728 383.104 148.296 383.136L147.576 383.208C146.568 383.304 145.816 383.656 145.32 384.264C144.84 384.872 144.6 385.608 144.6 386.472V391.968C144.6 392.352 144.488 392.64 144.264 392.832C144.04 393.024 143.752 393.12 143.4 393.12C143.048 393.12 142.752 393.024 142.512 392.832C142.288 392.64 142.176 392.352 142.176 391.968V382.2C142.176 381.832 142.288 381.552 142.512 381.36C142.752 381.152 143.048 381.048 143.4 381.048C143.72 381.048 143.984 381.152 144.192 381.36C144.416 381.552 144.528 381.824 144.528 382.176V383.328C144.848 382.624 145.312 382.088 145.92 381.72C146.528 381.352 147.216 381.136 147.984 381.072L148.32 381.048ZM155.815 381C157.367 381 158.519 381.392 159.271 382.176C160.039 382.96 160.423 384.152 160.423 385.752V391.968C160.423 392.336 160.319 392.624 160.111 392.832C159.903 393.024 159.615 393.12 159.247 393.12C158.895 393.12 158.615 393.016 158.407 392.808C158.199 392.6 158.095 392.32 158.095 391.968V391.08C157.791 391.752 157.335 392.272 156.727 392.64C156.135 392.992 155.439 393.168 154.639 393.168C153.871 393.168 153.167 393.016 152.527 392.712C151.903 392.392 151.407 391.96 151.039 391.416C150.671 390.872 150.487 390.256 150.487 389.568C150.471 388.704 150.687 388.032 151.135 387.552C151.583 387.056 152.311 386.704 153.319 386.496C154.327 386.272 155.727 386.16 157.519 386.16H158.071V385.464C158.071 384.568 157.887 383.92 157.519 383.52C157.151 383.12 156.559 382.92 155.743 382.92C155.183 382.92 154.655 382.992 154.159 383.136C153.663 383.28 153.119 383.488 152.527 383.76C152.095 384 151.791 384.12 151.615 384.12C151.375 384.12 151.175 384.032 151.015 383.856C150.871 383.68 150.799 383.456 150.799 383.184C150.799 382.944 150.863 382.736 150.991 382.56C151.135 382.368 151.359 382.184 151.663 382.008C152.223 381.704 152.879 381.464 153.631 381.288C154.383 381.096 155.111 381 155.815 381ZM155.071 391.368C155.951 391.368 156.671 391.072 157.231 390.48C157.791 389.872 158.071 389.096 158.071 388.152V387.528H157.639C156.391 387.528 155.431 387.584 154.759 387.696C154.087 387.808 153.607 388 153.319 388.272C153.031 388.528 152.887 388.904 152.887 389.4C152.887 389.976 153.095 390.448 153.511 390.816C153.927 391.184 154.447 391.368 155.071 391.368ZM156.319 379.704C156.191 379.816 156.039 379.872 155.863 379.872C155.687 379.872 155.527 379.808 155.383 379.68C155.255 379.552 155.191 379.4 155.191 379.224C155.191 379.064 155.247 378.92 155.359 378.792L157.951 375.408C158.271 374.976 158.639 374.76 159.055 374.76C159.359 374.76 159.615 374.864 159.823 375.072C160.031 375.28 160.135 375.528 160.135 375.816C160.135 376.184 159.943 376.528 159.559 376.848L156.319 379.704Z" fill="white"/>
<path fill-rule="evenodd" clip-rule="evenodd" d="M29.1806 167.049C25.1994 167.049 20.4745 167.89 15.3121 173.853V157.165C15.3121 152.949 11.8778 149.52 7.65607 149.52C3.43429 149.52 0 152.949 0 157.165V211.588C0 215.804 3.43429 219.233 7.65607 219.233C11.8778 219.233 15.3121 215.804 15.3121 211.588V190.465C15.3121 184.393 18.1996 181.04 23.4604 181.04C28.6118 181.04 31.3242 184.295 31.3242 190.465V211.588C31.3242 215.804 34.7585 219.233 38.9803 219.233C43.2021 219.233 46.6364 215.804 46.6364 211.588V186.031C46.6254 174.148 40.1069 167.049 29.1806 167.049ZM73.1482 167.42C66.914 167.42 61.9704 168.229 57.1252 170.042C54.6096 170.981 52.9253 173.406 52.9253 176.071C52.9253 179.631 55.758 182.416 59.3783 182.416C60.122 182.416 60.7454 182.307 61.5985 182.023C64.5406 181.105 67.6468 180.669 71.1139 180.669C79.3387 180.669 81.0887 185.201 81.1105 189.035C78.2559 188.106 74.6576 187.254 69.6374 187.254C56.5564 187.254 49.0535 193.229 49.0535 203.659V203.845C49.0535 213.27 56.1408 219.605 66.6843 219.605C72.6232 219.605 77.3809 217.803 81.1762 214.111C81.8214 216.809 84.4136 219.244 88.3947 219.244C92.5837 219.244 95.8649 216.012 95.8649 211.883V189.351C95.8649 182.263 94.0055 176.802 90.3197 173.133C86.5135 169.343 80.7387 167.42 73.1482 167.42ZM70.928 208.65C66.5859 208.65 63.8953 206.597 63.8953 203.288V203.102C63.8953 199.159 67.1984 196.909 72.9623 196.909C75.9154 196.909 78.8575 197.488 81.2965 198.537V200.623C81.2965 205.341 77.0309 208.65 70.928 208.65ZM116.383 173.984C120.342 169.321 125.22 167.049 131.258 167.049C142.775 167.049 154.423 176.038 154.423 193.229V193.414C154.423 201.333 151.984 208.039 147.379 212.822C143.168 217.202 137.448 219.605 131.258 219.605C125.297 219.605 120.561 217.573 116.46 213.248V226.355C116.46 230.57 113.025 234 108.804 234C104.582 234 101.148 230.57 101.148 226.355V175.066C101.148 170.85 104.582 167.42 108.804 167.42C112.664 167.42 115.858 170.282 116.383 173.984ZM139.122 193.229C139.122 185.813 134.189 180.21 127.648 180.21C121.064 180.21 116.274 185.682 116.274 193.229V193.414C116.274 200.961 121.053 206.433 127.648 206.433C134.298 206.433 139.122 200.961 139.122 193.414V193.229ZM188.066 167.049C182.028 167.049 177.15 169.321 173.191 173.984C172.666 170.282 169.472 167.42 165.612 167.42C161.39 167.42 157.956 170.85 157.956 175.066V226.355C157.956 230.57 161.39 234 165.612 234C169.833 234 173.268 230.57 173.268 226.355V213.248C177.369 217.573 182.105 219.605 188.066 219.605C194.256 219.605 199.976 217.202 204.187 212.822C208.792 208.039 211.231 201.333 211.231 193.414V193.229C211.231 176.038 199.583 167.049 188.066 167.049ZM184.456 180.21C190.997 180.21 195.93 185.813 195.93 193.229V193.414C195.93 200.961 191.106 206.433 184.456 206.433C177.861 206.433 173.082 200.961 173.082 193.414V193.229C173.082 185.682 177.872 180.21 184.456 180.21ZM245.388 173.187C246.81 169.408 249.347 167.42 252.727 167.42C256.806 167.42 260.011 170.533 260 174.487C260 175.634 259.628 177.294 259.3 178.058L242.03 219.474C237.688 229.97 233.16 233.694 224.727 233.694C221.752 233.694 219.467 233.301 216.842 232.362C215.037 231.706 211.996 230.002 211.996 225.961C211.996 221.986 215.135 219.616 218.165 219.616C219.368 219.616 220.09 219.823 220.67 220.02C221.862 220.391 222.518 220.544 223.426 220.544C225.723 220.544 226.685 220.173 227.844 217.956L228.194 217.126L211.395 178.255C211.012 177.294 210.607 175.808 210.607 174.771C210.607 170.577 213.856 167.409 218.165 167.409C221.72 167.409 224.126 169.266 225.504 173.089L235.621 200.251L245.388 173.187Z" fill="white"/>
<path d="M184.889 32.1055V76.7781C184.889 94.5087 170.406 108.884 152.542 108.884H149.271L132.563 125.456C131.909 126.105 131.003 126.517 130 126.517C129.073 126.517 128.233 126.181 127.59 125.618L127.306 125.337L127.295 125.326L110.729 108.884H107.447C89.594 108.884 75.1111 94.5087 75.1111 76.7781V32.1055C75.1111 14.3749 89.594 0 107.458 0H152.542C170.406 0 184.889 14.3749 184.889 32.1055Z" fill="#FFD666"/>
<path d="M100.671 61.8857C97.4862 61.8857 95.6711 65.4875 97.5188 68.0881C104.703 78.2186 116.583 84.8235 130.005 84.8235C143.428 84.8235 155.297 78.2077 162.481 68.0881C164.329 65.4875 162.514 61.8857 159.329 61.8857H100.671Z" fill="white"/>
<path d="M119.321 46.554H100.106V36.935C100.106 31.6249 104.41 27.3159 109.714 27.3159C115.017 27.3159 119.321 31.6249 119.321 36.935V46.554Z" fill="white"/>
<path d="M159.905 46.554H140.689V36.935C140.689 31.6249 144.993 27.3159 150.297 27.3159C155.601 27.3159 159.905 31.6249 159.905 36.935V46.554Z" fill="white"/>
<path d="M100.671 61.8857C97.4862 61.8857 95.6711 65.4875 97.5188 68.0881C104.703 78.2186 116.583 84.8235 130.005 84.8235C143.428 84.8235 155.297 78.2077 162.481 68.0881C164.329 65.4875 162.514 61.8857 159.329 61.8857H100.671Z" fill="white"/>
<path d="M119.321 46.554H100.106V36.935C100.106 31.6249 104.41 27.3159 109.714 27.3159C115.017 27.3159 119.321 31.6249 119.321 36.935V46.554Z" fill="white"/>
<path d="M159.905 46.554H140.689V36.935C140.689 31.6249 144.993 27.3159 150.297 27.3159C155.601 27.3159 159.905 31.6249 159.905 36.935V46.554Z" fill="white"/>
</svg>
